<?xml version="1.0" encoding="UTF-8"?>
<svg fill="#FFFFFF" width="75pt" height="75pt" version="1.1" viewBox="0 0 75 75" xmlns="http://www.w3.org/2000/svg">
 <g id="surface73569" fill-rule="evenodd">
  <path d="m55.078 34.898v19.602c0 1.3086 1.0352 2.3398 2.3438 2.3398s2.3438-1.0312 2.3438-2.3398v-1.1719c-0.007813-0.65234 0.51953-1.1875 1.1719-1.1875s1.1797 0.53516 1.1719 1.1875v1.1719c0 2.5742-2.1133 4.6836-4.6875 4.6836s-4.6875-2.1094-4.6875-4.6836v-19.602z"/>
  <path d="m19.922 34.895v19.602c0 1.3086-1.0352 2.3398-2.3438 2.3398s-2.3438-1.0312-2.3438-2.3398v-1.1719c0.007813-0.65234-0.51953-1.1875-1.1719-1.1875s-1.1797 0.53516-1.1719 1.1875v1.1719c0 2.5742 2.1133 4.6836 4.6875 4.6836s4.6875-2.1094 4.6875-4.6836v-19.602z"/>
  <path d="m36.055 5.8594c-8.5938 0-15.984 6.1523-17.57 14.617l-0.51172 2.7539c-0.71875 3.8516-1.8164 7.6289-3.2695 11.27l-0.55859 1.3945c-0.37891 0.95703 0.57031 1.9023 1.5234 1.5195l5.4023-2.1602 4.8203 2.1406c0.30469 0.13281 0.64844 0.13281 0.95312 0l4.8203-2.1406 5.4023 2.1602c0.27734 0.11328 0.58984 0.11328 0.87109 0l5.4023-2.1602 4.8203 2.1406c0.30469 0.13281 0.64844 0.13281 0.95312 0l4.8203-2.1406 5.4023 2.1602c0.95312 0.38281 1.9023-0.5625 1.5234-1.5195l-0.55859-1.3945c-1.4531-3.6406-2.5469-7.418-3.2695-11.27l-0.51172-2.7539c-1.582-8.4648-8.9766-14.617-17.57-14.617zm0 2.3438h2.8945c7.4766 0 13.883 5.332 15.262 12.703l0.51562 2.7617c0.67969 3.6328 1.7734 7.1641 3.082 10.621l-3.4648-1.3867c-0.29297-0.11719-0.62109-0.10547-0.91016 0.023437l-4.7969 2.1289-4.7969-2.1289c-0.28906-0.12891-0.61719-0.14062-0.91016-0.023437l-5.4297 2.1641-5.4258-2.168c-0.29297-0.11719-0.62109-0.10547-0.91016 0.023437l-4.7969 2.1289-4.7969-2.1289c-0.28906-0.12891-0.61719-0.14062-0.91016-0.023437l-3.4648 1.3867c1.3086-3.4531 2.4023-6.9883 3.082-10.621l0.51562-2.7617c1.3789-7.3711 7.7852-12.703 15.262-12.703z"/>
  <path d="m31.621 33.98c-0.64844 0.011719-1.1641 0.54297-1.1523 1.1914v29.285c0 1.3086-1.0352 2.3398-2.3438 2.3398s-2.3438-1.0312-2.3438-2.3398v-1.1719c0.007812-0.65234-0.51953-1.1875-1.1719-1.1875s-1.1797 0.53516-1.1719 1.1875v1.1719c0 2.5742 2.1133 4.6836 4.6875 4.6836s4.6875-2.1094 4.6875-4.6836v-29.285c0.011719-0.66016-0.52734-1.1992-1.1914-1.1914z"/>
  <path d="m43.34 33.98c-0.64844 0.011719-1.1641 0.54297-1.1523 1.1914v29.285c0 2.5742 2.1133 4.6836 4.6875 4.6836s4.6875-2.1094 4.6875-4.6836v-1.1719c0.007812-0.65234-0.51953-1.1875-1.1719-1.1875s-1.1797 0.53516-1.1719 1.1875v1.1719c0 1.3086-1.0352 2.3398-2.3438 2.3398s-2.3438-1.0312-2.3438-2.3398v-29.285c0.011719-0.66016-0.52734-1.1992-1.1914-1.1914z"/>
  <path d="m36.586 11.246c-5.6406 0-10.492 4.0352-11.531 9.5898-0.14453 0.64844 0.27344 1.2891 0.92969 1.4102 0.65234 0.12109 1.2734-0.32422 1.3711-0.98047 0.83594-4.4609 4.7031-7.6758 9.2266-7.6758 0.65234 0.007812 1.1875-0.51953 1.1875-1.1719 0-0.65234-0.53516-1.1797-1.1875-1.1719z"/>
 </g>
</svg>
